<svg width="984" height="1050" viewBox="0 0 984 1050" fill="none" xmlns="http://www.w3.org/2000/svg">
<path d="M984 72C984 32.2355 951.765 0 912 0H693C679.745 0 669 10.7452 669 24V452C669 478.51 690.49 500 717 500H960C973.255 500 984 489.255 984 476V72Z" fill="#C75949"/>
<path d="M619 87C619 73.7452 608.255 63 595 63H92C52.2355 63 20 95.2355 20 135V476C20 489.255 30.7452 500 44 500H595C608.255 500 619 489.255 619 476V87Z" fill="#A8BED2"/>
<path d="M0 978C0 1017.76 32.2355 1050 72 1050H291C304.255 1050 315 1039.25 315 1026V598C315 571.49 293.51 550 267 550H24C10.7452 550 0 560.745 0 574V978Z" fill="#A8BED2"/>
<path d="M365 963C365 976.255 375.745 987 389 987H892C931.764 987 964 954.765 964 915V574C964 560.745 953.255 550 940 550H389C375.745 550 365 560.745 365 574V963Z" fill="#A8BED2"/>
</svg>
