<svg width="2978" height="1633" viewBox="0 0 2978 1633" fill="none" xmlns="http://www.w3.org/2000/svg">
<path d="M1981 72C1981 32.2355 1948.76 0 1909 0H1690C1676.75 0 1666 10.7452 1666 24V452C1666 478.51 1687.49 500 1714 500H1957C1970.25 500 1981 489.255 1981 476V72Z" fill="#C75949"/>
<path d="M1616 87C1616 73.7452 1605.25 63 1592 63H1089C1049.24 63 1017 95.2355 1017 135V476C1017 489.255 1027.75 500 1041 500H1592C1605.25 500 1616 489.255 1616 476V87Z" fill="#A8BED2"/>
<path d="M997 978C997 1017.76 1029.24 1050 1069 1050H1288C1301.25 1050 1312 1039.25 1312 1026V598C1312 571.49 1290.51 550 1264 550H1021C1007.75 550 997 560.745 997 574V978Z" fill="#A8BED2"/>
<path d="M1362 963C1362 976.255 1372.75 987 1386 987H1889C1928.76 987 1961 954.765 1961 915V574C1961 560.745 1950.25 550 1937 550H1386C1372.75 550 1362 560.745 1362 574V963Z" fill="#A8BED2"/>
<path d="M109.837 1400C42.2919 1400 0 1355.23 0 1283.96C0 1213.6 44.726 1167.3 111.967 1167.3C168.255 1167.3 208.721 1199.59 215.719 1250.15H163.691C156.997 1227.61 137.829 1214.82 110.75 1214.82C74.239 1214.82 52.0282 1240.71 52.0282 1283.65C52.0282 1325.99 74.5433 1352.49 110.75 1352.49C138.438 1352.49 158.823 1338.78 164.908 1316.55H216.023C208.113 1366.8 166.125 1400 109.837 1400Z" fill="#0F1A35"/>
<path d="M457.101 1283.35C457.101 1352.18 411.766 1400 346.351 1400C281.239 1400 236.513 1352.49 236.513 1283.65C236.513 1214.82 281.544 1167 346.655 1167C412.07 1167 457.101 1214.51 457.101 1283.35ZM405.072 1283.35C405.072 1240.4 383.166 1214.51 346.959 1214.51C310.448 1214.51 288.542 1240.4 288.542 1283.35C288.542 1326.6 310.448 1352.49 346.959 1352.49C383.166 1352.49 405.072 1325.99 405.072 1283.35Z" fill="#0F1A35"/>
<path d="M491.444 1396.35V1170.96H585.155C630.49 1170.96 657.873 1194.72 657.873 1233.4C657.873 1257.46 646.92 1275.12 626.535 1283.96C648.745 1291.27 660.611 1308.63 660.611 1334.21C660.611 1374.11 633.837 1396.35 585.155 1396.35H491.444ZM579.983 1214.21H540.734V1263.25H579.983C597.63 1263.25 607.366 1254.41 607.366 1238.27C607.366 1222.43 597.934 1214.21 579.983 1214.21ZM582.417 1304.67H540.734V1353.1H582.417C600.673 1353.1 610.105 1344.87 610.105 1328.12C610.105 1312.89 600.368 1304.67 582.417 1304.67Z" fill="#0F1A35"/>
<path d="M693.787 1396.35V1170.96H787.499C832.834 1170.96 860.217 1194.72 860.217 1233.4C860.217 1257.46 849.264 1275.12 828.878 1283.96C851.089 1291.27 862.955 1308.63 862.955 1334.21C862.955 1374.11 836.18 1396.35 787.499 1396.35H693.787ZM782.327 1214.21H743.077V1263.25H782.327C799.974 1263.25 809.71 1254.41 809.71 1238.27C809.71 1222.43 800.278 1214.21 782.327 1214.21ZM784.761 1304.67H743.077V1353.1H784.761C803.016 1353.1 812.448 1344.87 812.448 1328.12C812.448 1312.89 802.712 1304.67 784.761 1304.67Z" fill="#0F1A35"/>
<path d="M945.421 1170.96V1350.66H1034.26V1396.35H896.131V1170.96H945.421Z" fill="#0F1A35"/>
<path d="M1208.2 1396.35H1065.2V1170.96H1208.2V1216.65H1114.49V1260.81H1197.55V1304.06H1114.49V1350.66H1208.2V1396.35Z" fill="#0F1A35"/>
<path d="M1378.34 1396.35H1329.05V1170.96H1416.06C1470.83 1170.96 1501.86 1197.46 1501.86 1244.06C1501.86 1273.3 1489.39 1294.01 1464.44 1306.8L1503.99 1396.35H1450.14L1416.37 1317.46H1378.34V1396.35ZM1378.34 1214.82V1274.21H1415.76C1437.36 1274.21 1449.84 1263.25 1449.84 1244.06C1449.84 1225.17 1437.97 1214.82 1416.06 1214.82H1378.34Z" fill="#0F1A35"/>
<path d="M1746.63 1283.35C1746.63 1352.18 1701.3 1400 1635.88 1400C1570.77 1400 1526.05 1352.49 1526.05 1283.65C1526.05 1214.82 1571.08 1167 1636.19 1167C1701.6 1167 1746.63 1214.51 1746.63 1283.35ZM1694.6 1283.35C1694.6 1240.4 1672.7 1214.51 1636.49 1214.51C1599.98 1214.51 1578.07 1240.4 1578.07 1283.35C1578.07 1326.6 1599.98 1352.49 1636.49 1352.49C1672.7 1352.49 1694.6 1325.99 1694.6 1283.35Z" fill="#0F1A35"/>
<path d="M1799.52 1396.35H1748.1L1828.43 1170.96H1876.5L1956.52 1396.35H1904.19L1888.37 1348.83H1815.65L1799.52 1396.35ZM1846.08 1259.29L1829.95 1307.41H1874.37L1858.25 1259.29C1855.81 1251.67 1853.07 1242.84 1852.16 1237.36C1851.25 1242.53 1848.81 1251.06 1846.08 1259.29Z" fill="#0F1A35"/>
<path d="M2070.96 1396.35H1982.73V1170.96H2067.92C2133.94 1170.96 2179.89 1217.25 2179.89 1284.26C2179.89 1350.05 2135.16 1396.35 2070.96 1396.35ZM2063.05 1216.65H2032.02V1350.66H2066.09C2105.04 1350.66 2127.86 1325.99 2127.86 1284.26C2127.86 1241.62 2103.82 1216.65 2063.05 1216.65Z" fill="#0F1A35"/>
<path d="M2319.66 1178.27V1376.24H2419.76V1396.35H2297.75V1178.27H2319.66Z" fill="#0F1A35"/>
<path d="M2458.5 1396.35H2436.29L2516.31 1178.27H2543.39L2624.32 1396.35H2601.5L2580.2 1338.48H2479.8L2458.5 1396.35ZM2526.96 1209.03L2486.49 1319.29H2573.2L2532.43 1209.03C2531.52 1205.99 2530 1202.33 2529.69 1200.2C2529.39 1202.03 2528.17 1205.99 2526.96 1209.03Z" fill="#0F1A35"/>
<path d="M2654.6 1396.35V1178.27H2734.32C2776.31 1178.27 2802.17 1199.59 2802.17 1234.62C2802.17 1260.2 2790.91 1277.56 2768.39 1286.39C2793.65 1294.62 2806.43 1312.28 2806.43 1339.08C2806.43 1374.11 2780.26 1396.35 2738.88 1396.35H2654.6ZM2734.01 1197.76H2676.51V1277.56H2736.75C2764.13 1277.56 2779.65 1262.33 2779.65 1236.44C2779.65 1212.08 2763.22 1197.76 2734.01 1197.76ZM2738.88 1296.75H2676.51V1376.55H2738.88C2767.48 1376.55 2784.22 1361.62 2784.22 1336.34C2784.22 1311.67 2767.18 1296.75 2738.88 1296.75Z" fill="#0F1A35"/>
<path d="M2832.87 1234.92C2832.87 1198.37 2862.08 1174.31 2905.89 1174.31C2945.14 1174.31 2971 1196.24 2974.35 1232.79H2952.14C2949.7 1208.12 2932.97 1194.11 2905.59 1194.11C2874.86 1194.11 2854.78 1209.95 2854.78 1234.62C2854.78 1253.8 2866.03 1265.99 2888.85 1271.77L2926.28 1280.91C2960.35 1289.13 2978 1308.63 2978 1338.17C2978 1375.94 2948.79 1400 2903.76 1400C2861.47 1400 2832.87 1377.77 2830.13 1342.13H2852.65C2853.86 1364.97 2873.94 1379.9 2903.76 1379.9C2935.71 1379.9 2956.09 1364.36 2956.09 1339.39C2956.09 1319.9 2945.14 1307.1 2921.71 1301.62L2884.9 1292.48C2850.82 1284.26 2832.87 1264.77 2832.87 1234.92Z" fill="#0F1A35"/>
<path d="M268 1630.68V1519.32H311.001C317.24 1519.32 322.68 1520.61 327.32 1523.19C331.96 1525.76 335.57 1529.24 338.148 1533.63C340.726 1537.96 342.015 1542.75 342.015 1548.01C342.015 1553.99 340.416 1559.33 337.22 1564.02C334.023 1568.66 329.743 1571.88 324.381 1573.69L324.226 1569.9C331.445 1571.96 337.116 1575.57 341.241 1580.72C345.366 1585.88 347.428 1592.12 347.428 1599.44C347.428 1605.88 346.062 1611.45 343.329 1616.14C340.597 1620.78 336.756 1624.36 331.806 1626.89C326.856 1629.42 321.107 1630.68 314.559 1630.68H268ZM279.446 1619.78H311.775C316.312 1619.78 320.385 1618.98 323.994 1617.38C327.604 1615.73 330.439 1613.41 332.502 1610.42C334.616 1607.43 335.673 1603.82 335.673 1599.59C335.673 1595.47 334.719 1591.76 332.811 1588.46C330.903 1585.16 328.3 1582.53 325 1580.57C321.752 1578.56 318.039 1577.55 313.863 1577.55H279.446V1619.78ZM279.446 1566.8H310.924C314.482 1566.8 317.73 1566 320.669 1564.41C323.608 1562.76 325.928 1560.51 327.629 1557.68C329.382 1554.84 330.259 1551.57 330.259 1547.86C330.259 1542.6 328.429 1538.32 324.768 1535.02C321.159 1531.72 316.544 1530.07 310.924 1530.07H279.446V1566.8Z" fill="#0F1A35"/>
<path d="M406.328 1633C397.821 1633 390.293 1631.25 383.745 1627.74C377.248 1624.24 372.144 1619.29 368.431 1612.89C364.719 1606.5 362.863 1599.02 362.863 1590.47V1519.4L374.309 1519.32V1589C374.309 1594.77 375.289 1599.77 377.248 1604C379.207 1608.18 381.76 1611.63 384.905 1614.36C388.101 1617.04 391.582 1619.03 395.346 1620.32C399.11 1621.61 402.77 1622.25 406.328 1622.25C409.937 1622.25 413.624 1621.61 417.388 1620.32C421.152 1619.03 424.606 1617.04 427.751 1614.36C430.896 1611.63 433.449 1608.18 435.408 1604C437.367 1599.77 438.347 1594.77 438.347 1589V1519.32H449.793V1590.47C449.793 1599.02 447.937 1606.5 444.225 1612.89C440.512 1619.23 435.382 1624.18 428.834 1627.74C422.337 1631.25 414.835 1633 406.328 1633Z" fill="#0F1A35"/>
<path d="M473.018 1630.68V1519.32H484.387V1630.68H473.018Z" fill="#0F1A35"/>
<path d="M509.12 1630.68V1519.32H520.49V1619.78H573.39V1630.68H509.12Z" fill="#0F1A35"/>
<path d="M600.789 1630.68V1530.22H561.887V1519.32H651.06V1530.22H612.158V1630.68H600.789Z" fill="#0F1A35"/>
<path d="M719.368 1630.68V1530.22H680.466V1519.32H769.639V1530.22H730.737V1630.68H719.368Z" fill="#0F1A35"/>
<path d="M827.131 1633C816.045 1633 806.687 1630.55 799.056 1625.65C791.425 1620.7 785.65 1613.87 781.732 1605.16C777.813 1596.45 775.854 1586.39 775.854 1575C775.854 1563.61 777.813 1553.55 781.732 1544.84C785.65 1536.13 791.425 1529.32 799.056 1524.42C806.687 1519.47 816.045 1517 827.131 1517C838.268 1517 847.626 1519.47 855.205 1524.42C862.836 1529.32 868.611 1536.13 872.529 1544.84C876.499 1553.55 878.484 1563.61 878.484 1575C878.484 1586.39 876.499 1596.45 872.529 1605.16C868.611 1613.87 862.836 1620.7 855.205 1625.65C847.626 1630.55 838.268 1633 827.131 1633ZM827.131 1622.1C835.844 1622.1 843.114 1620.11 848.94 1616.14C854.767 1612.17 859.124 1606.66 862.011 1599.59C864.95 1592.48 866.419 1584.28 866.419 1575C866.419 1565.72 864.95 1557.55 862.011 1550.49C859.124 1543.42 854.767 1537.91 848.94 1533.94C843.114 1529.97 835.844 1527.96 827.131 1527.9C818.417 1527.9 811.173 1529.89 805.398 1533.86C799.623 1537.83 795.266 1543.37 792.327 1550.49C789.44 1557.55 787.971 1565.72 787.919 1575C787.867 1584.28 789.285 1592.45 792.173 1599.51C795.112 1606.53 799.494 1612.04 805.321 1616.06C811.147 1620.03 818.417 1622.04 827.131 1622.1Z" fill="#0F1A35"/>
<path d="M926.486 1630.68V1519.32H937.855V1619.78H990.756V1630.68H926.486Z" fill="#0F1A35"/>
<path d="M996.207 1630.68L1034.57 1519.32H1049.65L1088.01 1630.68H1076.18L1039.75 1525.66H1044.24L1008.04 1630.68H996.207ZM1013.3 1603.69V1593.02H1070.84V1603.69H1013.3Z" fill="#0F1A35"/>
<path d="M1137.63 1633C1129.84 1633 1122.83 1631.71 1116.59 1629.13C1110.4 1626.5 1105.27 1622.79 1101.2 1618C1097.18 1613.2 1094.55 1607.51 1093.31 1600.91L1104.91 1598.97C1106.77 1606.19 1110.69 1611.86 1116.67 1615.99C1122.65 1620.06 1129.79 1622.1 1138.09 1622.1C1143.55 1622.1 1148.45 1621.25 1152.78 1619.54C1157.11 1617.79 1160.52 1615.32 1162.99 1612.12C1165.47 1608.92 1166.71 1605.13 1166.71 1600.75C1166.71 1597.86 1166.19 1595.42 1165.16 1593.41C1164.13 1591.34 1162.76 1589.64 1161.06 1588.3C1159.36 1586.96 1157.5 1585.85 1155.49 1584.98C1153.48 1584.05 1151.52 1583.3 1149.61 1582.73L1121.38 1574.3C1117.98 1573.32 1114.84 1572.09 1111.95 1570.59C1109.06 1569.05 1106.53 1567.22 1104.37 1565.1C1102.25 1562.94 1100.6 1560.41 1099.42 1557.52C1098.23 1554.64 1097.64 1551.34 1097.64 1547.62C1097.64 1541.33 1099.29 1535.9 1102.59 1531.31C1105.89 1526.72 1110.4 1523.19 1116.12 1520.71C1121.85 1518.24 1128.37 1517.03 1135.69 1517.08C1143.12 1517.08 1149.74 1518.39 1155.57 1521.02C1161.45 1523.65 1166.29 1527.41 1170.11 1532.31C1173.92 1537.16 1176.45 1542.91 1177.69 1549.56L1165.78 1551.72C1165 1546.88 1163.22 1542.67 1160.44 1539.12C1157.66 1535.56 1154.1 1532.83 1149.77 1530.92C1145.49 1528.96 1140.77 1527.96 1135.61 1527.9C1130.61 1527.9 1126.15 1528.75 1122.23 1530.46C1118.37 1532.11 1115.3 1534.37 1113.03 1537.26C1110.76 1540.15 1109.63 1543.45 1109.63 1547.16C1109.63 1550.92 1110.66 1553.94 1112.72 1556.21C1114.84 1558.48 1117.41 1560.26 1120.46 1561.54C1123.55 1562.83 1126.54 1563.89 1129.43 1564.71L1151.24 1571.13C1153.51 1571.75 1156.16 1572.65 1159.2 1573.84C1162.3 1574.97 1165.29 1576.62 1168.17 1578.79C1171.11 1580.9 1173.54 1583.69 1175.44 1587.14C1177.35 1590.6 1178.31 1594.98 1178.31 1600.29C1178.31 1605.44 1177.28 1610.06 1175.21 1614.13C1173.2 1618.2 1170.34 1621.63 1166.63 1624.42C1162.97 1627.2 1158.66 1629.31 1153.71 1630.76C1148.81 1632.25 1143.45 1633 1137.63 1633Z" fill="#0F1A35"/>
<path d="M1223.89 1630.68V1530.22H1184.99V1519.32H1274.16V1530.22H1235.26V1630.68H1223.89Z" fill="#0F1A35"/>
<path d="M1273.32 1630.68V1617.46H1286.55V1630.68H1273.32Z" fill="#0F1A35"/>
<path d="M1341.4 1630.68V1519.32H1375.2C1376.38 1519.32 1378.39 1519.35 1381.23 1519.4C1384.12 1519.45 1386.87 1519.66 1389.5 1520.02C1397.96 1521.2 1405.02 1524.35 1410.7 1529.45C1416.37 1534.55 1420.62 1541.05 1423.46 1548.94C1426.29 1556.83 1427.71 1565.51 1427.71 1575C1427.71 1584.49 1426.29 1593.17 1423.46 1601.06C1420.62 1608.95 1416.37 1615.45 1410.7 1620.55C1405.02 1625.65 1397.96 1628.8 1389.5 1629.98C1386.93 1630.29 1384.17 1630.5 1381.23 1630.6C1378.29 1630.65 1376.28 1630.68 1375.2 1630.68H1341.4ZM1353.15 1619.78H1375.2C1377.31 1619.78 1379.58 1619.72 1382 1619.62C1384.48 1619.47 1386.59 1619.21 1388.34 1618.85C1394.84 1617.71 1400.07 1615.08 1404.04 1610.96C1408.07 1606.84 1411.01 1601.68 1412.86 1595.49C1414.72 1589.26 1415.65 1582.42 1415.65 1575C1415.65 1567.52 1414.72 1560.67 1412.86 1554.43C1411.01 1548.19 1408.07 1543.04 1404.04 1538.96C1400.02 1534.89 1394.79 1532.29 1388.34 1531.15C1386.59 1530.79 1384.45 1530.56 1381.93 1530.46C1379.45 1530.3 1377.21 1530.22 1375.2 1530.22H1353.15V1619.78Z" fill="#0F1A35"/>
<path d="M1445.32 1630.68V1519.32H1514.93V1530.22H1456.69V1568.74H1505.65V1579.64H1456.69V1619.78H1514.93V1630.68H1445.32Z" fill="#0F1A35"/>
<path d="M1568.13 1633C1560.35 1633 1553.34 1631.71 1547.1 1629.13C1540.91 1626.5 1535.78 1622.79 1531.71 1618C1527.68 1613.2 1525.05 1607.51 1523.82 1600.91L1535.42 1598.97C1537.27 1606.19 1541.19 1611.86 1547.17 1615.99C1553.15 1620.06 1560.3 1622.1 1568.6 1622.1C1574.06 1622.1 1578.96 1621.25 1583.29 1619.54C1587.62 1617.79 1591.03 1615.32 1593.5 1612.12C1595.98 1608.92 1597.21 1605.13 1597.21 1600.75C1597.21 1597.86 1596.7 1595.42 1595.67 1593.41C1594.63 1591.34 1593.27 1589.64 1591.57 1588.3C1589.87 1586.96 1588.01 1585.85 1586 1584.98C1583.99 1584.05 1582.03 1583.3 1580.12 1582.73L1551.89 1574.3C1548.49 1573.32 1545.34 1572.09 1542.46 1570.59C1539.57 1569.05 1537.04 1567.22 1534.88 1565.1C1532.76 1562.94 1531.11 1560.41 1529.93 1557.52C1528.74 1554.64 1528.15 1551.34 1528.15 1547.62C1528.15 1541.33 1529.8 1535.9 1533.1 1531.31C1536.4 1526.72 1540.91 1523.19 1546.63 1520.71C1552.36 1518.24 1558.88 1517.03 1566.2 1517.08C1573.62 1517.08 1580.25 1518.39 1586.08 1521.02C1591.95 1523.65 1596.8 1527.41 1600.62 1532.31C1604.43 1537.16 1606.96 1542.91 1608.2 1549.56L1596.28 1551.72C1595.51 1546.88 1593.73 1542.67 1590.95 1539.12C1588.16 1535.56 1584.61 1532.83 1580.28 1530.92C1576 1528.96 1571.28 1527.96 1566.12 1527.9C1561.12 1527.9 1556.66 1528.75 1552.74 1530.46C1548.88 1532.11 1545.81 1534.37 1543.54 1537.26C1541.27 1540.15 1540.14 1543.45 1540.14 1547.16C1540.14 1550.92 1541.17 1553.94 1543.23 1556.21C1545.34 1558.48 1547.92 1560.26 1550.96 1561.54C1554.06 1562.83 1557.05 1563.89 1559.93 1564.71L1581.74 1571.13C1584.01 1571.75 1586.67 1572.65 1589.71 1573.84C1592.8 1574.97 1595.79 1576.62 1598.68 1578.79C1601.62 1580.9 1604.04 1583.69 1605.95 1587.14C1607.86 1590.6 1608.81 1594.98 1608.81 1600.29C1608.81 1605.44 1607.78 1610.06 1605.72 1614.13C1603.71 1618.2 1600.85 1621.63 1597.14 1624.42C1593.47 1627.2 1589.17 1629.31 1584.22 1630.76C1579.32 1632.25 1573.96 1633 1568.13 1633Z" fill="#0F1A35"/>
<path d="M1626.33 1630.68V1519.32H1637.69V1630.68H1626.33Z" fill="#0F1A35"/>
<path d="M1705.51 1633C1697.67 1633 1690.61 1631.63 1684.31 1628.9C1678.02 1626.17 1672.66 1622.28 1668.23 1617.22C1663.85 1612.17 1660.49 1606.09 1658.17 1598.97C1655.85 1591.81 1654.69 1583.82 1654.69 1575C1654.69 1563.35 1656.7 1553.19 1660.73 1544.53C1664.8 1535.82 1670.63 1529.06 1678.21 1524.27C1685.78 1519.47 1694.88 1517.08 1705.51 1517.08C1717.36 1517.08 1727.01 1519.86 1734.43 1525.43C1741.91 1530.95 1747.12 1538.37 1750.05 1547.7L1738.61 1550.49C1736.18 1543.68 1732.19 1538.24 1726.62 1534.17C1721.1 1530.1 1714.22 1528.06 1705.97 1528.06C1697.26 1528.01 1690.01 1529.97 1684.24 1533.94C1678.46 1537.85 1674.11 1543.37 1671.17 1550.49C1668.28 1557.55 1666.81 1565.72 1666.76 1575C1666.71 1584.28 1668.12 1592.45 1671.01 1599.51C1673.95 1606.53 1678.33 1612.04 1684.16 1616.06C1689.99 1620.03 1697.26 1622.04 1705.97 1622.1C1713.96 1622.1 1720.56 1620.55 1725.77 1617.46C1730.98 1614.36 1734.92 1609.93 1737.6 1604.15C1740.34 1598.38 1741.88 1591.55 1742.24 1583.66H1716.57V1573.92H1754.15C1754.31 1575.1 1754.39 1576.37 1754.39 1577.71C1754.44 1579 1754.46 1579.92 1754.46 1580.49C1754.46 1590.54 1752.66 1599.54 1749.05 1607.48C1745.44 1615.37 1740 1621.61 1732.73 1626.19C1725.51 1630.73 1716.44 1633 1705.51 1633Z" fill="#0F1A35"/>
<path d="M1769.94 1630.68V1519.32H1781.39L1842.72 1610.57V1519.32H1854.17V1630.68H1842.72L1781.39 1539.35V1630.68H1769.94Z" fill="#0F1A35"/>
<path d="M1875.83 1630.68V1519.32H1945.44V1530.22H1887.2V1568.74H1936.16V1579.64H1887.2V1619.78H1945.44V1630.68H1875.83Z" fill="#0F1A35"/>
<path d="M1964.05 1630.68V1519.32H1997.85C1999.03 1519.32 2001.04 1519.35 2003.88 1519.4C2006.77 1519.45 2009.52 1519.66 2012.15 1520.02C2020.61 1521.2 2027.67 1524.35 2033.35 1529.45C2039.02 1534.55 2043.27 1541.05 2046.11 1548.94C2048.94 1556.83 2050.36 1565.51 2050.36 1575C2050.36 1584.49 2048.94 1593.17 2046.11 1601.06C2043.27 1608.95 2039.02 1615.45 2033.35 1620.55C2027.67 1625.65 2020.61 1628.8 2012.15 1629.98C2009.58 1630.29 2006.82 1630.5 2003.88 1630.6C2000.94 1630.65 1998.93 1630.68 1997.85 1630.68H1964.05ZM1975.8 1619.78H1997.85C1999.96 1619.78 2002.23 1619.72 2004.65 1619.62C2007.13 1619.47 2009.24 1619.21 2010.99 1618.85C2017.49 1617.71 2022.72 1615.08 2026.69 1610.96C2030.72 1606.84 2033.65 1601.68 2035.51 1595.49C2037.37 1589.26 2038.3 1582.42 2038.3 1575C2038.3 1567.52 2037.37 1560.67 2035.51 1554.43C2033.65 1548.19 2030.72 1543.04 2026.69 1538.96C2022.67 1534.89 2017.44 1532.29 2010.99 1531.15C2009.24 1530.79 2007.1 1530.56 2004.57 1530.46C2002.1 1530.3 1999.86 1530.22 1997.85 1530.22H1975.8V1619.78Z" fill="#0F1A35"/>
<path d="M2128.56 1630.68V1530.22H2089.66V1519.32H2178.83V1530.22H2139.93V1630.68H2128.56Z" fill="#0F1A35"/>
<path d="M2236.33 1633C2225.24 1633 2215.88 1630.55 2208.25 1625.65C2200.62 1620.7 2194.85 1613.87 2190.93 1605.16C2187.01 1596.45 2185.05 1586.39 2185.05 1575C2185.05 1563.61 2187.01 1553.55 2190.93 1544.84C2194.85 1536.13 2200.62 1529.32 2208.25 1524.42C2215.88 1519.47 2225.24 1517 2236.33 1517C2247.46 1517 2256.82 1519.47 2264.4 1524.42C2272.03 1529.32 2277.81 1536.13 2281.72 1544.84C2285.69 1553.55 2287.68 1563.61 2287.68 1575C2287.68 1586.39 2285.69 1596.45 2281.72 1605.16C2277.81 1613.87 2272.03 1620.7 2264.4 1625.65C2256.82 1630.55 2247.46 1633 2236.33 1633ZM2236.33 1622.1C2245.04 1622.1 2252.31 1620.11 2258.14 1616.14C2263.96 1612.17 2268.32 1606.66 2271.21 1599.59C2274.14 1592.48 2275.61 1584.28 2275.61 1575C2275.61 1565.72 2274.14 1557.55 2271.21 1550.49C2268.32 1543.42 2263.96 1537.91 2258.14 1533.94C2252.31 1529.97 2245.04 1527.96 2236.33 1527.9C2227.61 1527.9 2220.37 1529.89 2214.59 1533.86C2208.82 1537.83 2204.46 1543.37 2201.52 1550.49C2198.63 1557.55 2197.17 1565.72 2197.11 1575C2197.06 1584.28 2198.48 1592.45 2201.37 1599.51C2204.31 1606.53 2208.69 1612.04 2214.52 1616.06C2220.34 1620.03 2227.61 1622.04 2236.33 1622.1Z" fill="#0F1A35"/>
<path d="M2335.68 1630.68V1519.32H2347.05V1619.78H2399.95V1630.68H2335.68Z" fill="#0F1A35"/>
<path d="M2413.14 1630.68V1519.32H2482.74V1530.22H2424.5V1568.74H2473.46V1579.64H2424.5V1619.78H2482.74V1630.68H2413.14Z" fill="#0F1A35"/>
<path d="M2493.62 1630.68L2531.98 1519.32H2547.06L2585.42 1630.68H2573.59L2537.16 1525.66H2541.65L2505.45 1630.68H2493.62ZM2510.71 1603.69V1593.02H2568.25V1603.69H2510.71Z" fill="#0F1A35"/>
<path d="M2599.39 1630.68V1519.32H2633.18C2634.37 1519.32 2636.38 1519.35 2639.22 1519.4C2642.1 1519.45 2644.86 1519.66 2647.49 1520.02C2655.95 1521.2 2663.01 1524.35 2668.68 1529.45C2674.36 1534.55 2678.61 1541.05 2681.45 1548.94C2684.28 1556.83 2685.7 1565.51 2685.7 1575C2685.7 1584.49 2684.28 1593.17 2681.45 1601.06C2678.61 1608.95 2674.36 1615.45 2668.68 1620.55C2663.01 1625.65 2655.95 1628.8 2647.49 1629.98C2644.91 1630.29 2642.16 1630.5 2639.22 1630.6C2636.28 1630.65 2634.27 1630.68 2633.18 1630.68H2599.39ZM2611.14 1619.78H2633.18C2635.3 1619.78 2637.57 1619.72 2639.99 1619.62C2642.47 1619.47 2644.58 1619.21 2646.33 1618.85C2652.83 1617.71 2658.06 1615.08 2662.03 1610.96C2666.05 1606.84 2668.99 1601.68 2670.85 1595.49C2672.71 1589.26 2673.63 1582.42 2673.63 1575C2673.63 1567.52 2672.71 1560.67 2670.85 1554.43C2668.99 1548.19 2666.05 1543.04 2662.03 1538.96C2658.01 1534.89 2652.78 1532.29 2646.33 1531.15C2644.58 1530.79 2642.44 1530.56 2639.91 1530.46C2637.44 1530.3 2635.2 1530.22 2633.18 1530.22H2611.14V1619.78Z" fill="#0F1A35"/>
<path d="M2697.77 1630.68V1617.46H2711V1630.68H2697.77Z" fill="#0F1A35"/>
</svg>
