<svg width="9529" height="1050" viewBox="0 0 9529 1050" fill="none" xmlns="http://www.w3.org/2000/svg">
<path d="M984 72C984 32.2355 951.765 0 912 0H693C679.745 0 669 10.7452 669 24V452C669 478.51 690.49 500 717 500H960C973.255 500 984 489.255 984 476V72Z" fill="#C75949"/>
<path d="M619 87C619 73.7452 608.255 63 595 63H92C52.2355 63 20 95.2355 20 135V476C20 489.255 30.7452 500 44 500H595C608.255 500 619 489.255 619 476V87Z" fill="#A8BED2"/>
<path d="M0 978C0 1017.76 32.2355 1050 72 1050H291C304.255 1050 315 1039.25 315 1026V598C315 571.49 293.51 550 267 550H24C10.7452 550 0 560.745 0 574V978Z" fill="#A8BED2"/>
<path d="M365 963C365 976.255 375.745 987 389 987H892C931.764 987 964 954.765 964 915V574C964 560.745 953.255 550 940 550H389C375.745 550 365 560.745 365 574V963Z" fill="#A8BED2"/>
<path d="M1790.35 838C1608.11 838 1494 717.325 1494 525.231C1494 335.6 1614.68 210.821 1796.1 210.821C1947.97 210.821 2057.15 297.838 2076.04 434.11H1935.66C1917.6 373.362 1865.88 338.884 1792.82 338.884C1694.31 338.884 1634.38 408.661 1634.38 524.41C1634.38 638.518 1695.13 709.937 1792.82 709.937C1867.52 709.937 1922.52 672.996 1938.94 613.069H2076.86C2055.51 748.52 1942.23 838 1790.35 838Z" fill="#0F1A35"/>
<path d="M2727.31 523.59C2727.31 709.116 2604.99 838 2428.5 838C2252.82 838 2132.14 709.937 2132.14 524.41C2132.14 338.884 2253.64 210 2429.32 210C2605.82 210 2727.31 338.063 2727.31 523.59ZM2586.93 523.59C2586.93 407.841 2527.83 338.063 2430.14 338.063C2331.63 338.063 2272.52 407.841 2272.52 523.59C2272.52 640.159 2331.63 709.937 2430.14 709.937C2527.83 709.937 2586.93 638.518 2586.93 523.59Z" fill="#0F1A35"/>
<path d="M2819.97 828.149V220.672H3072.82C3195.14 220.672 3269.02 284.703 3269.02 388.959C3269.02 453.812 3239.47 501.425 3184.47 525.231C3244.39 544.933 3276.41 591.725 3276.41 660.682C3276.41 768.222 3204.17 828.149 3072.82 828.149H2819.97ZM3058.86 337.242H2952.96V469.409H3058.86C3106.48 469.409 3132.75 445.603 3132.75 402.094C3132.75 359.407 3107.3 337.242 3058.86 337.242ZM3065.43 581.054H2952.96V711.579H3065.43C3114.69 711.579 3140.14 689.414 3140.14 644.264C3140.14 603.218 3113.87 581.054 3065.43 581.054Z" fill="#0F1A35"/>
<path d="M3365.92 828.149V220.672H3618.77C3741.08 220.672 3814.97 284.703 3814.97 388.959C3814.97 453.812 3785.41 501.425 3730.41 525.231C3790.34 544.933 3822.36 591.725 3822.36 660.682C3822.36 768.222 3750.11 828.149 3618.77 828.149H3365.92ZM3604.81 337.242H3498.91V469.409H3604.81C3652.42 469.409 3678.69 445.603 3678.69 402.094C3678.69 359.407 3653.25 337.242 3604.81 337.242ZM3611.38 581.054H3498.91V711.579H3611.38C3660.63 711.579 3686.08 689.414 3686.08 644.264C3686.08 603.218 3659.81 581.054 3611.38 581.054Z" fill="#0F1A35"/>
<path d="M4044.86 220.672V705.012H4284.57V828.149H3911.87V220.672H4044.86Z" fill="#0F1A35"/>
<path d="M4753.86 828.149H4368.03V220.672H4753.86V343.809H4501.02V462.842H4725.13V579.412H4501.02V705.012H4753.86V828.149Z" fill="#0F1A35"/>
<path d="M5212.91 828.149H5079.92V220.672H5314.71C5462.48 220.672 5546.21 292.091 5546.21 417.692C5546.21 496.499 5512.55 552.322 5445.24 586.8L5551.96 828.149H5406.65L5315.53 615.532H5212.91V828.149ZM5212.91 338.884V498.962H5313.89C5372.17 498.962 5405.83 469.409 5405.83 417.692C5405.83 366.795 5373.82 338.884 5314.71 338.884H5212.91Z" fill="#0F1A35"/>
<path d="M6206.63 523.59C6206.63 709.116 6084.31 838 5907.81 838C5732.13 838 5611.45 709.937 5611.45 524.41C5611.45 338.884 5732.95 210 5908.63 210C6085.13 210 6206.63 338.063 6206.63 523.59ZM6066.25 523.59C6066.25 407.841 6007.14 338.063 5909.45 338.063C5810.94 338.063 5751.83 407.841 5751.83 523.59C5751.83 640.159 5810.94 709.937 5909.45 709.937C6007.14 709.937 6066.25 638.518 6066.25 523.59Z" fill="#0F1A35"/>
<path d="M6349.33 828.149H6210.6L6427.32 220.672H6557.03L6772.93 828.149H6631.73L6589.04 700.086H6392.84L6349.33 828.149ZM6474.93 458.737L6431.42 588.442H6551.28L6507.77 458.737C6501.2 438.214 6493.81 414.408 6491.35 399.631C6488.89 413.587 6482.32 436.573 6474.93 458.737Z" fill="#0F1A35"/>
<path d="M7081.7 828.149H6843.63V220.672H7073.49C7251.63 220.672 7375.59 345.451 7375.59 526.052C7375.59 703.37 7254.91 828.149 7081.7 828.149ZM7060.36 343.809H6976.62V705.012H7068.57C7173.64 705.012 7235.21 638.518 7235.21 526.052C7235.21 411.124 7170.36 343.809 7060.36 343.809Z" fill="#0F1A35"/>
<path d="M7752.72 240.374V773.969H8022.8V828.149H7693.61V240.374H7752.72Z" fill="#0F1A35"/>
<path d="M8127.32 828.149H8067.39L8283.3 240.374H8356.36L8574.73 828.149H8513.16L8455.69 672.175H8184.79L8127.32 828.149ZM8312.03 323.286L8202.85 620.457H8436.81L8326.81 323.286C8324.34 315.077 8320.24 305.226 8319.42 299.48C8318.6 304.405 8315.31 315.077 8312.03 323.286Z" fill="#0F1A35"/>
<path d="M8656.43 828.149V240.374H8871.52C8984.8 240.374 9054.58 297.838 9054.58 392.243C9054.58 461.2 9024.21 507.992 8963.46 531.799C9031.6 553.963 9066.08 601.576 9066.08 673.817C9066.08 768.222 8995.48 828.149 8883.83 828.149H8656.43ZM8870.7 292.912H8715.54V507.992H8878.08C8951.97 507.992 8993.83 466.946 8993.83 397.169C8993.83 331.495 8949.5 292.912 8870.7 292.912ZM8883.83 559.71H8715.54V774.79H8883.83C8961 774.79 9006.15 734.565 9006.15 666.429C9006.15 599.935 8960.18 559.71 8883.83 559.71Z" fill="#0F1A35"/>
<path d="M9137.42 393.064C9137.42 294.554 9216.23 229.702 9334.44 229.702C9440.34 229.702 9510.12 288.808 9519.15 387.318H9459.22C9452.65 320.824 9407.5 283.061 9333.62 283.061C9250.71 283.061 9196.53 325.749 9196.53 392.243C9196.53 443.961 9226.9 476.797 9288.47 492.395L9389.44 517.022C9481.39 539.187 9529 591.725 9529 671.354C9529 773.148 9450.19 838 9328.69 838C9214.59 838 9137.42 778.073 9130.03 682.026H9190.78C9194.06 743.595 9248.24 783.82 9328.69 783.82C9414.89 783.82 9469.89 741.953 9469.89 674.638C9469.89 622.099 9440.34 587.621 9377.13 572.844L9277.8 548.217C9185.85 526.052 9137.42 473.514 9137.42 393.064Z" fill="#0F1A35"/>
</svg>
